<?xml version="1.0" encoding="UTF-8"?>
<svg width="210px" height="64px" viewBox="0 0 210 64" version="1.1" xmlns="http://www.w3.org/2000/svg" xmlns:xlink="http://www.w3.org/1999/xlink">
    <!-- Generator: sketchtool 46.2 (44496) - http://www.bohemiancoding.com/sketch -->
    <title>FAD8CA00-7387-4A99-85B1-78B627AB5EAC</title>
    <desc>Created with sketchtool.</desc>
    <defs>
        <rect id="path-1" x="0" y="0" width="210" height="64" rx="8"></rect>
    </defs>
    <g id="Page-3" stroke="none" stroke-width="1" fill="none" fill-rule="evenodd">
        <g id="Login-_-TRY" transform="translate(-1028.000000, -809.000000)">
            <g id="Group" transform="translate(362.000000, 151.000000)">
                <g id="Group-3" transform="translate(666.000000, 658.000000)">
                    <g id="Group-2">
                        <g>
                            <g id="Playstore">
                                <g id="background">
                                    <use fill="#000000" fill-rule="evenodd" xlink:href="#path-1"></use>
                                    <rect stroke="#A6A6A6" stroke-width="1" x="0.5" y="0.5" width="209" height="63" rx="8"></rect>
                                    <rect stroke="#8F8F8F" stroke-width="1" x="0.5" y="0.5" width="209" height="63" rx="8"></rect>
                                </g>
                                <path d="M74,12.4129912 L74,22.5435422 L77.7524154,22.5435422 C80.8494185,22.5435422 82.6427994,20.6831153 82.6427994,17.4466745 C82.6427994,14.2593771 80.8350139,12.4129912 77.7524154,12.4129912 L74,12.4129912 Z M75.6133226,13.8451689 L77.5723571,13.8451689 C79.7258546,13.8451689 81.0006675,15.1790598 81.0006675,17.467736 C81.0006675,19.7915145 79.7474616,21.1113645 77.5723571,21.1113645 L75.6133226,21.1113645 L75.6133226,13.8451689 Z M88.3196782,21.3500608 C86.9728419,21.3500608 86.216597,20.3882552 86.216597,18.7173812 C86.216597,17.0605482 86.9728419,16.0917221 88.3196782,16.0917221 C89.6593121,16.0917221 90.4227594,17.0605482 90.4227594,18.7173812 C90.4227594,20.3812347 89.6593121,21.3500608 88.3196782,21.3500608 L88.3196782,21.3500608 Z M88.3196782,22.6909722 C90.61002,22.6909722 92.0144749,21.1956102 92.0144749,18.7173812 C92.0144749,16.2531931 90.6028177,14.7508106 88.3196782,14.7508106 C86.0293363,14.7508106 84.6176791,16.2531931 84.6176791,18.7173812 C84.6176791,21.1956102 86.022134,22.6909722 88.3196782,22.6909722 L88.3196782,22.6909722 Z M104.151846,14.8982407 L102.603345,14.8982407 L101.206092,20.7322586 L101.083652,20.7322586 L99.4703299,14.8982407 L97.9866493,14.8982407 L96.3733268,20.7322586 L96.2580894,20.7322586 L94.8536345,14.8982407 L93.283526,14.8982407 L95.4442258,22.5435422 L97.0359414,22.5435422 L98.649264,16.9131181 L98.7717036,16.9131181 L100.392229,22.5435422 L101.998349,22.5435422 L104.151846,14.8982407 Z M106.119524,22.5435422 L107.668025,22.5435422 L107.668025,18.0714971 C107.668025,16.8780157 108.431472,16.133845 109.677476,16.133845 C110.829849,16.133845 111.391631,16.7446266 111.391631,17.9732104 L111.391631,22.5435422 L112.940133,22.5435422 L112.940133,17.5941046 C112.940133,15.7758005 111.953413,14.7508106 110.203246,14.7508106 C109.022064,14.7508106 108.107367,15.2633056 107.725644,16.1127835 L107.610406,16.1127835 L107.610406,14.8982407 L106.119524,14.8982407 L106.119524,22.5435422 Z M115.55602,22.5435422 L117.104522,22.5435422 L117.104522,11.9145372 L115.55602,11.9145372 L115.55602,22.5435422 Z M123.105505,21.3500608 C121.758669,21.3500608 121.002424,20.3882552 121.002424,18.7173812 C121.002424,17.0605482 121.758669,16.0917221 123.105505,16.0917221 C124.445139,16.0917221 125.208587,17.0605482 125.208587,18.7173812 C125.208587,20.3812347 124.445139,21.3500608 123.105505,21.3500608 L123.105505,21.3500608 Z M123.105505,22.6909722 C125.395847,22.6909722 126.800302,21.1956102 126.800302,18.7173812 C126.800302,16.2531931 125.388645,14.7508106 123.105505,14.7508106 C120.815164,14.7508106 119.403506,16.2531931 119.403506,18.7173812 C119.403506,21.1956102 120.807961,22.6909722 123.105505,22.6909722 L123.105505,22.6909722 Z M131.591294,21.3992041 C130.748621,21.3992041 130.136423,20.9990368 130.136423,20.3110299 C130.136423,19.6370639 130.626181,19.2790195 131.706531,19.2088147 L133.622352,19.0894666 L133.622352,19.7283301 C133.622352,20.6760948 132.758072,21.3992041 131.591294,21.3992041 L131.591294,21.3992041 Z M131.195166,22.6699108 C132.225099,22.6699108 133.082177,22.2346411 133.550328,21.4694089 L133.672768,21.4694089 L133.672768,22.5435422 L135.163651,22.5435422 L135.163651,17.3203059 C135.163651,15.7055958 134.054492,14.7508106 132.088255,14.7508106 C130.309279,14.7508106 129.041668,15.5932681 128.883217,16.9060976 L130.381302,16.9060976 C130.554158,16.3655208 131.151952,16.0566197 132.016232,16.0566197 C133.074975,16.0566197 133.622352,16.5129508 133.622352,17.3203059 L133.622352,17.9802309 L131.497664,18.099579 C129.632259,18.2119067 128.580719,19.0052208 128.580719,20.3812347 C128.580719,21.77831 129.682676,22.6699108 131.195166,22.6699108 L131.195166,22.6699108 Z M140.602853,22.6699108 C141.683203,22.6699108 142.597899,22.1714568 143.066051,21.3360198 L143.18849,21.3360198 L143.18849,22.5435422 L144.672171,22.5435422 L144.672171,11.9145372 L143.123669,11.9145372 L143.123669,16.1127835 L143.008432,16.1127835 C142.583494,15.2703261 141.676,14.7718721 140.602853,14.7718721 C138.622211,14.7718721 137.347398,16.3023365 137.347398,18.7173812 C137.347398,21.1394464 138.607807,22.6699108 140.602853,22.6699108 L140.602853,22.6699108 Z M141.042195,16.1268245 C142.338615,16.1268245 143.152479,17.130753 143.152479,18.7244017 C143.152479,20.3250708 142.345817,21.3149584 141.042195,21.3149584 C139.731371,21.3149584 138.946316,20.3391118 138.946316,18.7173812 C138.946316,17.1096915 139.738573,16.1268245 141.042195,16.1268245 L141.042195,16.1268245 Z M155.07522,21.3500608 C153.728384,21.3500608 152.972139,20.3882552 152.972139,18.7173812 C152.972139,17.0605482 153.728384,16.0917221 155.07522,16.0917221 C156.414854,16.0917221 157.178302,17.0605482 157.178302,18.7173812 C157.178302,20.3812347 156.414854,21.3500608 155.07522,21.3500608 L155.07522,21.3500608 Z M155.07522,22.6909722 C157.365562,22.6909722 158.770017,21.1956102 158.770017,18.7173812 C158.770017,16.2531931 157.35836,14.7508106 155.07522,14.7508106 C152.784879,14.7508106 151.373221,16.2531931 151.373221,18.7173812 C151.373221,21.1956102 152.777676,22.6909722 155.07522,22.6909722 L155.07522,22.6909722 Z M160.996979,22.5435422 L162.54548,22.5435422 L162.54548,18.0714971 C162.54548,16.8780157 163.308927,16.133845 164.554931,16.133845 C165.707304,16.133845 166.269086,16.7446266 166.269086,17.9732104 L166.269086,22.5435422 L167.817588,22.5435422 L167.817588,17.5941046 C167.817588,15.7758005 166.830868,14.7508106 165.080701,14.7508106 C163.899519,14.7508106 162.984822,15.2633056 162.603099,16.1127835 L162.487861,16.1127835 L162.487861,14.8982407 L160.996979,14.8982407 L160.996979,22.5435422 Z M175.310895,13.0448343 L175.310895,14.9333431 L174.021677,14.9333431 L174.021677,16.2040498 L175.310895,16.2040498 L175.310895,20.5216443 C175.310895,21.9959448 175.995116,22.585665 177.716474,22.585665 C178.018972,22.585665 178.299863,22.5505626 178.544742,22.5084398 L178.544742,21.2517741 C178.328672,21.2728355 178.206233,21.2868765 177.968556,21.2868765 C177.197906,21.2868765 176.859396,20.9358525 176.859396,20.1355179 L176.859396,16.2040498 L178.616766,16.2040498 L178.616766,14.9333431 L176.859396,14.9333431 L176.859396,13.0448343 L175.310895,13.0448343 Z M180.82212,22.5435422 L182.370622,22.5435422 L182.370622,18.0785176 C182.370622,16.9201386 183.155676,16.1408654 184.423286,16.1408654 C185.590064,16.1408654 186.173453,16.7586676 186.173453,17.9802309 L186.173453,22.5435422 L187.721955,22.5435422 L187.721955,17.6081455 C187.721955,15.7898415 186.713628,14.7578311 184.949057,14.7578311 C183.767874,14.7578311 182.86038,15.2703261 182.478657,16.1268245 L182.356217,16.1268245 L182.356217,11.9145372 L180.82212,11.9145372 L180.82212,22.5435422 Z M193.492464,16.0355583 C194.637635,16.0355583 195.386677,16.8148314 195.422689,18.0153333 L191.461406,18.0153333 C191.547834,16.8218519 192.347293,16.0355583 193.492464,16.0355583 L193.492464,16.0355583 Z M195.415487,20.4795214 C195.127393,21.0762621 194.486386,21.4062246 193.550083,21.4062246 C192.311281,21.4062246 191.511822,20.5567466 191.461406,19.2158352 L191.461406,19.1315894 L197,19.1315894 L197,18.6050535 C197,16.2040498 195.681973,14.7508106 193.499666,14.7508106 C191.28855,14.7508106 189.884095,16.3023365 189.884095,18.7454631 C189.884095,21.1885897 191.259741,22.6909722 193.506869,22.6909722 C195.300249,22.6909722 196.553455,21.8485148 196.90637,20.4795214 L195.415487,20.4795214 Z" id="Download-on-the" fill="#FFFFFF"></path>
                                <path d="M83.8058636,49.0305195 L86.266912,49.0305195 L80.879491,34.1949968 L78.387421,34.1949968 L73,49.0305195 L75.378324,49.0305195 L76.7536158,45.092886 L82.4409124,45.092886 L83.8058636,49.0305195 Z M79.5145398,36.888626 L79.690329,36.888626 L81.8515017,43.1600528 L77.3430265,43.1600528 L79.5145398,36.888626 Z M92.7924226,37.649422 C91.2620228,37.649422 89.9384338,38.4102181 89.2559582,39.6850655 L89.0905095,39.6850655 L89.0905095,37.8344805 L86.9500179,37.8344805 L86.9500179,52.6597222 L89.1732338,52.6597222 L89.1732338,47.33415 L89.349023,47.33415 C89.9384338,48.5164681 91.2103201,49.215578 92.8131037,49.215578 C95.656752,49.215578 97.4663464,46.984595 97.4663464,43.4273595 C97.4663464,39.870124 95.656752,37.649422 92.7924226,37.649422 L92.7924226,37.649422 Z M92.1616497,47.2313397 C90.3003526,47.2313397 89.1318717,45.7714338 89.1318717,43.4376405 C89.1318717,41.0935663 90.3003526,39.6336603 92.1719903,39.6336603 C94.0539684,39.6336603 95.1810872,41.0627232 95.1810872,43.4273595 C95.1810872,45.8022769 94.0539684,47.2313397 92.1616497,47.2313397 L92.1616497,47.2313397 Z M104.322754,37.649422 C102.792354,37.649422 101.468765,38.4102181 100.78629,39.6850655 L100.620841,39.6850655 L100.620841,37.8344805 L98.4803496,37.8344805 L98.4803496,52.6597222 L100.703566,52.6597222 L100.703566,47.33415 L100.879355,47.33415 C101.468765,48.5164681 102.740652,49.215578 104.343435,49.215578 C107.187084,49.215578 108.996678,46.984595 108.996678,43.4273595 C108.996678,39.870124 107.187084,37.649422 104.322754,37.649422 L104.322754,37.649422 Z M103.691981,47.2313397 C101.830684,47.2313397 100.662203,45.7714338 100.662203,43.4376405 C100.662203,41.0935663 101.830684,39.6336603 103.702322,39.6336603 C105.5843,39.6336603 106.711419,41.0627232 106.711419,43.4273595 C106.711419,45.8022769 105.5843,47.2313397 103.691981,47.2313397 L103.691981,47.2313397 Z M113.702884,45.0414808 C113.868333,47.6939859 116.091549,49.3903555 119.400521,49.3903555 C122.936986,49.3903555 125.149861,47.6117377 125.149861,44.7741741 C125.149861,42.5431911 123.888315,41.3094678 120.827516,40.6000769 L119.18337,40.1991169 C117.239349,39.7467516 116.453468,39.140171 116.453468,38.0812252 C116.453468,36.7446916 117.673651,35.8708043 119.503927,35.8708043 C121.241137,35.8708043 122.44064,36.7241296 122.657791,38.0915062 L124.912029,38.0915062 C124.777602,35.5932165 122.564726,33.8351608 119.534948,33.8351608 C116.277678,33.8351608 114.106165,35.5932165 114.106165,38.2354406 C114.106165,40.4150184 115.336689,41.7104279 118.03557,42.3375706 L119.95891,42.8002168 C121.933953,43.2628631 122.802559,43.9414109 122.802559,45.0723239 C122.802559,46.3882954 121.437608,47.344431 119.57631,47.344431 C117.580586,47.344431 116.194954,46.4499816 115.998484,45.0414808 L113.702884,45.0414808 Z M127.063491,35.1202893 L127.063491,37.8858857 L125.212535,37.8858857 L125.212535,39.7467516 L127.063491,39.7467516 L127.063491,46.0695836 C127.063491,48.2285994 128.045842,49.0922057 130.517231,49.0922057 C130.951534,49.0922057 131.354815,49.0408005 131.706393,48.9791144 L131.706393,47.1388104 C131.396177,47.1696535 131.220388,47.1902156 130.87915,47.1902156 C129.772713,47.1902156 129.286707,46.6761642 129.286707,45.5041271 L129.286707,39.7467516 L131.809799,39.7467516 L131.809799,37.8858857 L129.286707,37.8858857 L129.286707,35.1202893 L127.063491,35.1202893 Z M137.321937,47.2827448 C135.388256,47.2827448 134.302499,45.8742441 134.302499,43.4273595 C134.302499,41.001037 135.388256,39.5822552 137.321937,39.5822552 C139.245277,39.5822552 140.341374,41.001037 140.341374,43.4273595 C140.341374,45.863963 139.245277,47.2827448 137.321937,47.2827448 L137.321937,47.2827448 Z M137.321937,49.2464211 C140.610228,49.2464211 142.626633,47.0565622 142.626633,43.4273595 C142.626633,39.8187188 140.599888,37.6185789 137.321937,37.6185789 C134.033645,37.6185789 132.006899,39.8187188 132.006899,43.4273595 C132.006899,47.0565622 134.023305,49.2464211 137.321937,49.2464211 L137.321937,49.2464211 Z M143.640636,49.0305195 L145.863852,49.0305195 L145.863852,42.4198188 C145.863852,40.8468216 147.053014,39.7878758 148.728182,39.7878758 C149.100441,39.7878758 149.782917,39.859843 149.958706,39.9215291 L149.958706,37.7419513 C149.720874,37.6802651 149.296911,37.649422 148.976355,37.649422 C147.507998,37.649422 146.267133,38.4513422 145.946577,39.5514121 L145.781128,39.5514121 L145.781128,37.8344805 L143.640636,37.8344805 L143.640636,49.0305195 Z M154.964157,39.500007 C156.608303,39.500007 157.683719,40.641201 157.735422,42.3992567 L152.048125,42.3992567 C152.172212,40.6514821 153.320012,39.500007 154.964157,39.500007 L154.964157,39.500007 Z M157.725081,46.0078974 C157.31146,46.8817848 156.391152,47.364993 155.046882,47.364993 C153.268309,47.364993 152.120509,46.1209887 152.048125,44.1573125 L152.048125,44.0339401 L160,44.0339401 L160,43.2628631 C160,39.7467516 158.107681,37.6185789 154.974498,37.6185789 C151.799952,37.6185789 149.783547,39.890686 149.783547,43.4684836 C149.783547,47.0462812 151.75859,49.2464211 154.984838,49.2464211 C157.559633,49.2464211 159.358887,48.0126978 159.865573,46.0078974 L157.725081,46.0078974 Z" id="App-Store" fill="#FFFFFF"></path>
                            </g>
                            <g id="logo_apple" transform="translate(23.000000, 10.000000)" fill="#FFFFFF">
                                <path d="M29.2330194,22.6374935 C29.1841181,17.1430819 33.6830375,14.4700328 33.8887602,14.345586 C31.340834,10.5900201 27.3916327,10.0768902 26.0038476,10.0359761 C22.6869906,9.68309274 19.4696225,12.0424677 17.7799984,12.0424677 C16.0566493,12.0424677 13.454763,10.0700711 10.6505265,10.1280327 C7.04194807,10.1842894 3.66607231,12.2964756 1.81456803,15.576416 C-2.00647815,22.2641531 0.843287094,32.092041 4.50413937,37.4978055 C6.33540864,40.1469881 8.47526195,43.1013211 11.2761259,42.9973313 C14.0162848,42.8848178 15.0398395,41.2312096 18.346579,41.2312096 C21.6229659,41.2312096 22.5841293,42.9973313 25.4406395,42.9291413 C28.3814624,42.8848178 30.2329667,40.2714349 32.0001584,37.5983858 C34.1164041,34.567339 34.966275,31.5755015 35,31.4220739 C34.9325499,31.3999122 29.290352,29.2229455 29.2330194,22.6374935" id="Fill-2"></path>
                                <path d="M23.6716404,6.94086018 C25.197447,5.08555077 26.24142,2.5614473 25.9516215,0 C23.7432172,0.0950570238 20.9814025,1.485266 19.3910022,3.29983668 C17.9839082,4.89883162 16.7269508,7.51968956 17.0516648,9.98438239 C19.5324099,10.1643118 22.0794944,8.767313 23.6716404,6.94086018" id="Fill-3"></path>
                            </g>
                        </g>
                    </g>
                </g>
            </g>
        </g>
    </g>
</svg>