<?xml version="1.0" encoding="UTF-8"?>
<svg width="16px" height="17px" viewBox="0 0 16 17" version="1.1" xmlns="http://www.w3.org/2000/svg" xmlns:xlink="http://www.w3.org/1999/xlink">
    <!-- Generator: sketchtool 46.2 (44496) - http://www.bohemiancoding.com/sketch -->
    <title>39E56BD9-12A5-424E-BFC8-F4E5F1EC43A6</title>
    <desc>Created with sketchtool.</desc>
    <defs></defs>
    <g id="Page-3" stroke="none" stroke-width="1" fill="none" fill-rule="evenodd">
        <g id="Login-_-TRY" transform="translate(-841.000000, -492.000000)" fill="#4CB906">
            <g id="Group" transform="translate(362.000000, 151.000000)">
                <g id="Group-10" transform="translate(84.000000, 329.000000)">
                    <g id="Group-5" transform="translate(158.000000, 0.000000)">
                        <g id="Icons/Misc/Ok" transform="translate(237.000000, 12.500000)">
                            <path d="M8,16 C3.581722,16 0,12.418278 0,8 C0,3.581722 3.581722,0 8,0 C12.418278,0 16,3.581722 16,8 C16,12.418278 12.418278,16 8,16 Z M6.81244746,11.2745091 C7.12878123,11.5908428 7.6571575,11.5306671 7.89425969,11.1513036 L11.3725206,5.58608622 C11.5761451,5.26028689 11.4771029,4.83110402 11.1513036,4.62747944 C10.8255043,4.42385486 10.3963214,4.52289706 10.1926968,4.84869639 L7.1726605,9.6764606 L5.70929167,8.2037518 C5.4376226,7.93208273 4.99716001,7.93208273 4.72549093,8.2037518 C4.45382186,8.47542088 4.45382186,8.91588347 4.72549093,9.18755254 L6.81244746,11.2745091 Z" id="Ok"></path>
                        </g>
                    </g>
                </g>
            </g>
        </g>
    </g>
</svg>