<?xml version="1.0" encoding="UTF-8"?>
<svg width="19px" height="23px" viewBox="0 0 19 23" version="1.1" xmlns="http://www.w3.org/2000/svg" xmlns:xlink="http://www.w3.org/1999/xlink">
    <!-- Generator: sketchtool 46.2 (44496) - http://www.bohemiancoding.com/sketch -->
    <title>E586F732-90DF-4058-95B7-3B448C7A1A2D</title>
    <desc>Created with sketchtool.</desc>
    <defs></defs>
    <g id="Symbols" stroke="none" stroke-width="1" fill="none" fill-rule="evenodd">
        <g id="Shape" fill="#0871F4">
            <path d="M12.1046213,14.7074452 C13.061309,13.7551628 13.5994917,12.4710698 13.5994917,11.0995482 C13.5994917,8.28765781 11.3118904,6 8.5,6 C5.68810963,6 3.40050831,8.28765781 3.40050831,11.0995482 C3.40050831,12.4711262 3.93863455,13.7551628 4.89537874,14.7074452 C1.77443854,15.7397575 0,18.1135449 0,21.3009601 L0,23 L17,23 L17,21.3009601 C17,18.1135449 15.2255615,15.7397575 12.1046213,14.7074452 Z M16.3222591,22.3222591 L0.677740864,22.3222591 L0.677740864,21.3009601 C0.677740864,19.7141429 1.14493023,18.3675847 2.06631894,17.2987309 C2.91716611,16.3117143 4.16149834,15.5811661 5.66472757,15.1862126 L6.32761462,15.0120332 L5.78677741,14.5910432 C4.70098007,13.7460133 4.07824917,12.4733854 4.07824917,11.0995482 C4.07824917,8.66137542 6.06182724,6.67774086 8.5,6.67774086 C10.9381728,6.67774086 12.9217508,8.66137542 12.9217508,11.0995482 C12.9217508,12.4733854 12.2990199,13.7459568 11.2132226,14.5910432 L10.6723854,15.0120332 L11.3352724,15.1862126 C12.8385017,15.5812226 14.0827774,16.3117143 14.9336811,17.2987309 C15.8550698,18.3675847 16.3222591,19.7141429 16.3222591,21.3009601 L16.3222591,22.3222591 Z" fill-rule="nonzero"></path>
            <text id="+" font-family="Avenir-Heavy, Avenir" font-size="7" font-weight="600" line-spacing="18" letter-spacing="0.194444433">
                <tspan x="14.4797688" y="7.5">+</tspan>
            </text>
        </g>
    </g>
</svg>7 247.141627,17.0493643 C247.129741,15.8797136 246.237047,14.9076232 245.07264,14.7963605 C243.918935,14.6907509 242.832437,15.4364184 242.64682,16.5901227 C242.53481,17.2621835 242.590815,17.9630469 242.574814,18.6511091 C242.574814,18.8831301 242.574814,19.1151511 242.574814,19.3519725 L247.141627,19.3519725 Z" id="Shape"></path>
                    </g>
                </g>
            </g>
        </g>
    </g>
</svg>